<svg width="27" height="26" viewBox="0 0 27 26" fill="none" xmlns="http://www.w3.org/2000/svg">
<g clip-path="url(#clip0_1102_1534)">
<path d="M26.6631 0H25.8994C24.6529 0 23.5439 0.599219 22.8464 1.52344H22.8444C21.5963 1.52344 20.4865 2.12367 19.7893 3.04941V3.04688C17.6834 3.04688 15.9706 4.75556 15.9706 6.85547V10.5192L13.6284 12.8229L11.2862 10.5192V6.85547C11.2862 4.75556 9.57335 3.04688 7.46743 3.04688V3.04941C6.77032 2.12367 5.66048 1.52344 4.4124 1.52344H4.41037C3.71296 0.599219 2.60383 0 1.35738 0H0.593628V11.9651L6.00514 18.3828H5.17616V26H22.0806V18.3828H21.2516L26.6631 11.9651V0ZM9.75869 6.85547V9.16398C9.2927 8.88354 8.77181 8.70605 8.23118 8.64348V5.33203C8.23118 5.11062 8.21092 4.89328 8.17466 4.68203C9.09285 4.98012 9.75869 5.84137 9.75869 6.85547ZM5.17616 3.17738C6.06517 3.49182 6.70367 4.3388 6.70367 5.33203V8.77089C6.34005 8.87711 5.9944 9.03698 5.6782 9.24518L5.17616 8.74504V3.17738ZM12.8646 24.4766H6.70367V19.9062H12.8646V24.4766ZM12.8646 18.3828H8.00104L2.12114 11.4101V1.654C3.01015 1.96828 3.64865 2.81531 3.64865 3.80859V9.37625L8.45471 14.1695L9.53517 13.0925L6.79578 10.3604C7.10026 10.2145 7.43581 10.138 7.78367 10.138C8.39569 10.138 8.97106 10.3756 9.40385 10.8073L12.8646 14.2112V18.3828ZM20.5531 5.33203C20.5531 4.3388 21.1916 3.49182 22.0806 3.17738V8.74504L21.5786 9.24518C21.2624 9.03698 20.9167 8.87711 20.5531 8.77089V5.33203ZM17.4981 6.85547C17.4981 5.84142 18.164 4.98012 19.0821 4.68203C19.0449 4.89672 19.026 5.11416 19.0256 5.33203V8.64348C18.485 8.70605 17.9641 8.88354 17.4981 9.16398V6.85547ZM20.5531 24.4766H14.3921V19.9062H20.5531V24.4766ZM25.1356 11.4101L19.2557 18.3828H14.3921V14.2112L17.8529 10.8073C18.2857 10.3756 18.8611 10.138 19.4731 10.138C19.821 10.138 20.1565 10.2145 20.461 10.3604L17.7217 13.0924L18.802 14.1695L23.6081 9.3763V3.80859C23.6081 2.81536 24.2466 1.96838 25.1356 1.65395V11.4101Z" fill="#8789A3"/>
<path d="M17.498 21.4297H19.0256V22.9531H17.498V21.4297Z" fill="#8789A3"/>
<path d="M8.2312 21.4297H9.75871V22.9531H8.2312V21.4297Z" fill="#8789A3"/>
</g>
<defs>
<clipPath id="clip0_1102_1534">
<rect width="26.0695" height="26" fill="white" transform="translate(0.593628)"/>
</clipPath>
</defs>
</svg>
