<svg width="33" height="32" viewBox="0 0 33 32" fill="none" xmlns="http://www.w3.org/2000/svg">
<g clip-path="url(#clip0_1102_1540)">
<path d="M23.8362 24.8064V23.8248C23.8362 22.2613 22.9649 20.8556 21.5627 20.1562L18.9009 18.829V13.8714C18.9009 12.5645 18.2917 11.3678 17.2724 10.6017C17.3256 10.3129 17.5027 10.07 17.733 9.99359C19.4158 9.43512 20.5459 7.871 20.5459 6.10131C20.5459 3.56627 18.2748 1.64581 15.7484 2.05553C13.7947 2.37206 12.3207 4.18725 12.3207 6.27692V9.04957C10.2706 11.2129 9.03063 14.144 9.03063 17.3041V21.9374C9.03063 23.1653 9.374 24.3405 10.0149 25.3543C8.47796 25.9489 7.38562 27.4397 7.38562 29.1799V30.0002H23.0135C24.374 30.0002 25.4812 28.896 25.4812 27.5393C25.4817 26.9777 25.3288 26.4266 25.039 25.9451C24.7492 25.4636 24.3334 25.0699 23.8362 24.8064ZM20.9863 21.7105C21.7337 22.153 22.1909 22.9476 22.1909 23.8248V24.2136L20.3277 23.594L20.9863 21.7105ZM13.9659 6.27692C13.9659 4.98301 14.8458 3.86405 16.0127 3.67477C17.5911 3.41845 18.9009 4.62989 18.9009 6.10131C18.9015 6.61811 18.7389 7.12195 18.436 7.54126C18.1331 7.96057 17.7054 8.27402 17.2137 8.43707C16.5645 8.65243 16.0598 9.15403 15.8017 9.79124L13.9659 8.87567V6.27692ZM10.6756 17.3041C10.6756 14.7274 11.6113 12.2936 13.3216 10.389L15.8917 11.6703C16.7333 12.0896 17.2559 12.9336 17.2559 13.8715V19.8428L19.5048 20.9646L18.7671 23.0756L15.6108 22.026V14.3047H13.9658V23.2085L16.4574 24.0369C15.3603 25.2516 13.6236 25.7405 12.0043 25.2025L11.9522 25.185C11.128 24.2983 10.6756 23.1531 10.6756 21.9373V17.3041ZM23.0135 28.3596H9.17155C9.49782 27.4414 10.3561 26.7725 11.3748 26.7222C11.4478 26.7405 12.2193 27.0607 13.3441 27.0607C15.2198 27.0607 17.0113 26.1573 18.1168 24.5883L22.838 26.1577C23.1288 26.2542 23.3818 26.4396 23.561 26.6876C23.7402 26.9356 23.8365 27.2336 23.8362 27.5393C23.8362 27.9915 23.4672 28.3596 23.0135 28.3596H23.0135Z" fill="#8789A3"/>
</g>
<defs>
<clipPath id="clip0_1102_1540">
<rect width="28.0749" height="28" fill="white" transform="translate(2.39575 2)"/>
</clipPath>
</defs>
</svg>
